<svg xmlns="http://www.w3.org/2000/svg" xmlns:xlink="http://www.w3.org/1999/xlink" viewBox="2105 16 68 42"><defs><style>.a{fill:#fff;font-size:30px;font-family:Lato-Black, Lato;font-weight:800;}.b{fill:none;stroke:#fff;}.c{fill:#4e1c1c;opacity:0.2;}.d{filter:url(#g);}.e{filter:url(#e);}.f{filter:url(#c);}.g{filter:url(#a);}</style><filter id="a" x="2141" y="16" width="32" height="42" filterUnits="userSpaceOnUse"><feOffset dx="1" dy="3" input="SourceAlpha"/><feGaussianBlur stdDeviation="1" result="b"/><feFlood flood-opacity="0.349"/><feComposite operator="in" in2="b"/><feComposite in="SourceGraphic"/></filter><filter id="c" x="2114.289" y="25.299" width="35.191" height="23.301" filterUnits="userSpaceOnUse"><feOffset dx="1" dy="2" input="SourceAlpha"/><feGaussianBlur stdDeviation="0.5" result="d"/><feFlood flood-opacity="0.161"/><feComposite operator="in" in2="d"/><feComposite in="SourceGraphic"/></filter><filter id="e" x="2105" y="16" width="29" height="42" filterUnits="userSpaceOnUse"><feOffset dy="3" input="SourceAlpha"/><feGaussianBlur stdDeviation="1" result="f"/><feFlood flood-opacity="0.349"/><feComposite operator="in" in2="f"/><feComposite in="SourceGraphic"/></filter><filter id="g" x="2143" y="31" width="9" height="9" filterUnits="userSpaceOnUse"><feOffset dx="1" dy="1" input="SourceAlpha"/><feGaussianBlur stdDeviation="1" result="h"/><feFlood flood-opacity="0.349"/><feComposite operator="in" in2="h"/><feComposite in="SourceGraphic"/></filter></defs><g transform="translate(1998 4)"><g class="g" transform="matrix(1, 0, 0, 1, -1998, -4)"><text class="a" transform="translate(2143 16)"><tspan x="0" y="30">C</tspan></text></g><g class="f" transform="matrix(1, 0, 0, 1, -1998, -4)"><path class="b" d="M2216.4,98.081s8.191-1.865,13.14-4.539c4.594-2.481,9.519-6.13,9.765-8.088.486-3.855-5.168-2.09-5.723-.8s7.806,3.431,8.207,8.893-3.27,7.209-4.937,8.173-.64-1.863,2.654-4.678a28.881,28.881,0,0,1,5.685-3.549c1.587-.8,3.108-1.386,3.108-1.386" transform="translate(-101.5 -57.31)"/></g><g class="e" transform="matrix(1, 0, 0, 1, -1998, -4)"><text class="a" transform="translate(2108 16)"><tspan x="0" y="30">U</tspan></text></g><g class="d" transform="matrix(1, 0, 0, 1, -1998, -4)"><path class="c" d="M1.5,0A1.5,1.5,0,1,1,0,1.5,1.5,1.5,0,0,1,1.5,0Z" transform="translate(2145 33)"/></g></g></svg>